<svg width="36" height="35" viewBox="0 0 36 35" fill="none" xmlns="http://www.w3.org/2000/svg">
<path d="M34 11.7542V26.9708C34 31.6529 30.42 33.2136 26 33.2136H10C5.58 33.2136 2 31.6529 2 26.9708V11.7542C2 6.68199 5.58 5.51147 10 5.51147C10 6.4791 10.4999 7.35308 11.3199 7.99296C12.1399 8.63284 13.26 9.02301 14.5 9.02301H21.5C23.98 9.02301 26 7.44672 26 5.51147C30.42 5.51147 34 6.68199 34 11.7542Z" fill="white" stroke="#292D32" stroke-width="2.12885" stroke-linecap="round" stroke-linejoin="round"/>
<path d="M26 5.51153C26 7.44678 23.98 9.02307 21.5 9.02307H14.5C13.26 9.02307 12.1399 8.6329 11.3199 7.99302C10.4999 7.35314 10 6.47916 10 5.51153C10 3.57629 12.02 2 14.5 2H21.5C22.74 2 23.86 2.39017 24.68 3.03005C25.5 3.66993 26 4.54391 26 5.51153Z" fill="white" stroke="#292D32" stroke-width="2.12885" stroke-linecap="round" stroke-linejoin="round"/>
<path d="M10 19.1675H18H10Z" fill="white"/>
<path d="M10 19.1675H18" stroke="#292D32" stroke-width="2.12885" stroke-linecap="round" stroke-linejoin="round"/>
<path d="M10 25.4103H26H10Z" fill="white"/>
<path d="M10 25.4103H26" stroke="#292D32" stroke-width="2.12885" stroke-linecap="round" stroke-linejoin="round"/>
</svg>
