<svg width="39" height="31" viewBox="0 0 39 31" fill="none" xmlns="http://www.w3.org/2000/svg">
<path d="M1 15.9364V9.81801C1 5.74815 3.92105 3.03491 10.7368 3.03491H26.3158C33.1316 3.03491 36.0526 5.74815 36.0526 9.81801V20.481C34.6311 19.355 32.5474 18.636 30.2105 18.636C25.9068 18.636 22.4211 21.0644 22.4211 24.0625C22.4211 25.08 22.83 26.0432 23.5505 26.8572C23.9595 27.3455 24.4853 27.7797 25.0889 28.1324H10.7368C3.92105 28.1324 1 25.4191 1 21.3493" fill="white"/>
<path d="M1 15.9364V9.81801C1 5.74815 3.92105 3.03491 10.7368 3.03491H26.3158C33.1316 3.03491 36.0526 5.74815 36.0526 9.81801V20.481C34.6311 19.355 32.5474 18.636 30.2105 18.636C25.9068 18.636 22.4211 21.0644 22.4211 24.0625C22.4211 25.08 22.83 26.0432 23.5505 26.8572C23.9595 27.3455 24.4853 27.7797 25.0889 28.1324H10.7368C3.92105 28.1324 1 25.4191 1 21.3493" stroke="#292D32" stroke-width="1.62449" stroke-miterlimit="10" stroke-linecap="round" stroke-linejoin="round"/>
<path d="M10.7368 1V5.06986V1Z" fill="white"/>
<path d="M10.7368 1V5.06986" stroke="#292D32" stroke-width="1.62449" stroke-miterlimit="10" stroke-linecap="round" stroke-linejoin="round"/>
<path d="M26.3158 1V5.06986V1Z" fill="white"/>
<path d="M26.3158 1V5.06986" stroke="#292D32" stroke-width="1.62449" stroke-miterlimit="10" stroke-linecap="round" stroke-linejoin="round"/>
<path d="M1.97363 10.6183H35.0789H1.97363Z" fill="white"/>
<path d="M1.97363 10.6183H35.0789" stroke="#292D32" stroke-width="1.62449" stroke-miterlimit="10" stroke-linecap="round" stroke-linejoin="round"/>
<path d="M30.2106 29.4891C34.5125 29.4891 38.0001 27.0595 38.0001 24.0626C38.0001 21.0657 34.5125 18.6361 30.2106 18.6361C25.9087 18.6361 22.4211 21.0657 22.4211 24.0626C22.4211 27.0595 25.9087 29.4891 30.2106 29.4891Z" fill="white" stroke="#292D32" stroke-width="1.62449" stroke-miterlimit="10" stroke-linecap="round" stroke-linejoin="round"/>
<path d="M33.1117 24.13H27.3085H33.1117Z" fill="white"/>
<path d="M33.1117 24.13H27.3085" stroke="#292D32" stroke-width="1.62449" stroke-miterlimit="10" stroke-linecap="round" stroke-linejoin="round"/>
<path d="M30.2106 22.1494V26.2057V22.1494Z" fill="white"/>
<path d="M30.2106 22.1494V26.2057" stroke="#292D32" stroke-width="1.62449" stroke-miterlimit="10" stroke-linecap="round" stroke-linejoin="round"/>
<path d="M11.3118 16.8726H11.3256H11.3118Z" fill="white"/>
<path d="M11.3118 16.8726H11.3256" stroke="#292D32" stroke-width="2.16599" stroke-linecap="round" stroke-linejoin="round"/>
<path d="M11.3118 20.9424H11.3256H11.3118Z" fill="white"/>
<path d="M11.3118 20.9424H11.3256" stroke="#292D32" stroke-width="2.16599" stroke-linecap="round" stroke-linejoin="round"/>
</svg>
