<svg width="46" height="30" viewBox="0 0 46 30" fill="none" xmlns="http://www.w3.org/2000/svg">
<path d="M45.6165 6.23205C45.4152 5.71623 44.4 5.54143 43.8088 5.9173L37.1281 10.165L31.0295 9.51892L30.0133 5.6414L36.6941 1.39372C37.2889 1.01556 37.0023 0.371216 36.1856 0.242118C31.9288 -0.428508 27.2417 0.294099 23.9148 2.4088C20.3534 4.67316 19.3732 7.95545 20.8556 10.8173L1.68389 23.0068C-0.561297 24.4343 -0.561297 26.749 1.68389 28.1765C3.92908 29.604 7.56954 29.604 9.81473 28.1765L28.9703 15.9972C33.4732 16.9518 38.6257 16.3217 42.2105 14.0425C45.541 11.9249 46.6757 8.94026 45.6165 6.23205ZM5.75021 26.962C4.55978 26.962 3.59396 26.348 3.59396 25.5911C3.59396 24.8336 4.55978 24.2201 5.75021 24.2201C6.94064 24.2201 7.90645 24.8336 7.90645 25.5911C7.90645 26.348 6.94064 26.962 5.75021 26.962Z" fill="white"/>
</svg>
