<svg width="49" height="35" viewBox="0 0 49 35" fill="none" xmlns="http://www.w3.org/2000/svg">
<path d="M2 8.2C2 4.7745 6.0275 2 11 2H31.25V17.5C31.25 19.205 29.225 20.6 26.75 20.6H2V15.9345" fill="white"/>
<path d="M2 8.2C2 4.7745 6.0275 2 11 2H31.25V17.5C31.25 19.205 29.225 20.6 26.75 20.6H2V15.9345" stroke="black" stroke-width="2.26887" stroke-linecap="round" stroke-linejoin="round"/>
<path d="M40.25 29.9H38C38 28.195 35.975 26.8 33.5 26.8C31.025 26.8 29 28.195 29 29.9H20C20 28.195 17.975 26.8 15.5 26.8C13.025 26.8 11 28.195 11 29.9H8.75C5.015 29.9 2 27.823 2 25.25V20.6H26.75C29.225 20.6 31.25 19.205 31.25 17.5V6.65002H35.39C37.01 6.65002 38.495 7.25454 39.305 8.21554L43.1525 12.85H40.25C39.0125 12.85 38 13.5475 38 14.4V19.05C38 19.9025 39.0125 20.6 40.25 20.6H47V25.25" fill="white"/>
<path d="M40.25 29.9H38C38 28.195 35.975 26.8 33.5 26.8C31.025 26.8 29 28.195 29 29.9H20C20 28.195 17.975 26.8 15.5 26.8C13.025 26.8 11 28.195 11 29.9H8.75C5.015 29.9 2 27.823 2 25.25V20.6H26.75C29.225 20.6 31.25 19.205 31.25 17.5V6.65002H35.39C37.01 6.65002 38.495 7.25454 39.305 8.21554L43.1525 12.85H40.25C39.0125 12.85 38 13.5475 38 14.4V19.05C38 19.9025 39.0125 20.6 40.25 20.6H47V25.25" stroke="black" stroke-width="2.26887" stroke-linecap="round" stroke-linejoin="round"/>
<path d="M15.5 32.9999C17.9853 32.9999 20 31.6121 20 29.8999C20 28.1878 17.9853 26.7999 15.5 26.7999C13.0147 26.7999 11 28.1878 11 29.8999C11 31.6121 13.0147 32.9999 15.5 32.9999Z" fill="white" stroke="black" stroke-width="2.26887" stroke-linecap="round" stroke-linejoin="round"/>
<path d="M33.5 32.9999C35.9853 32.9999 38 31.6121 38 29.8999C38 28.1878 35.9853 26.7999 33.5 26.7999C31.0147 26.7999 29 28.1878 29 29.8999C29 31.6121 31.0147 32.9999 33.5 32.9999Z" fill="white" stroke="black" stroke-width="2.26887" stroke-linecap="round" stroke-linejoin="round"/>
<path d="M46.9999 17.5V20.6H40.2499C39.0124 20.6 37.9999 19.9025 37.9999 19.05V14.4C37.9999 13.5475 39.0124 12.85 40.2499 12.85H43.1524L46.9999 17.5Z" fill="white" stroke="black" stroke-width="2.26887" stroke-linecap="round" stroke-linejoin="round"/>
</svg>
