<svg width="39" height="24" viewBox="0 0 39 24" fill="none" xmlns="http://www.w3.org/2000/svg">
<path d="M38 3.37618V17.6623C38 18.7985 36.557 19.8636 34.781 20.0057L34.1705 20.0531C30.1375 20.3964 23.9215 21.71 20.3695 22.9647C19.8885 23.1422 19.093 23.1422 18.5935 22.9647L18.5195 22.9411C14.9674 21.6983 8.77006 20.3964 4.75556 20.0531L4.21898 20.0057C2.44298 19.8636 1 18.7985 1 17.6623V3.36433C1 1.95585 2.79444 0.890625 4.99594 1.00899C8.88094 1.2102 14.7639 2.46484 18.057 3.77864L18.5195 3.95613C19.056 4.16919 19.944 4.16919 20.4805 3.95613L20.795 3.82596C21.9605 3.36435 23.4405 2.90274 25.05 2.48848V7.31758L28.75 5.74337L32.45 7.31758V1.13924C32.9495 1.08006 33.4305 1.0445 33.8745 1.02083H33.9855C36.187 0.902473 38 1.95586 38 3.37618Z" fill="white" stroke="#292D32" stroke-width="1.45734" stroke-linecap="round" stroke-linejoin="round"/>
<path d="M19.4999 4.3468V22.1008V4.3468Z" fill="white"/>
<path d="M19.4999 4.3468V22.1008" stroke="#292D32" stroke-width="1.45734" stroke-linecap="round" stroke-linejoin="round"/>
<path d="M32.45 1.13928V7.31762L28.75 5.74341L25.05 7.31762V2.48852C27.4735 1.87305 30.1745 1.376 32.45 1.13928Z" fill="white" stroke="#292D32" stroke-width="1.45734" stroke-linecap="round" stroke-linejoin="round"/>
</svg>
