<svg width="42" height="34" viewBox="0 0 42 34" fill="none" xmlns="http://www.w3.org/2000/svg">
<path d="M32.4496 9.73907C32.3354 9.72407 32.2022 9.72407 32.088 9.73907C29.4614 9.66408 27.3678 7.96928 27.3678 5.86954C27.3678 3.72479 29.5566 2 32.2784 2C35.0001 2 37.1889 3.73979 37.1889 5.86954C37.1699 7.96928 35.0762 9.66408 32.4496 9.73907Z" fill="white" stroke="#292D32" stroke-width="2.08374" stroke-linecap="round" stroke-linejoin="round"/>
<path d="M30.4882 20.6576C33.0957 21.0026 35.9698 20.6426 37.9873 19.5778C40.671 18.1679 40.671 15.8582 37.9873 14.4484C35.9507 13.3835 33.0386 13.0236 30.4311 13.3835" fill="white"/>
<path d="M30.4882 20.6576C33.0957 21.0026 35.9698 20.6426 37.9873 19.5778C40.671 18.1679 40.671 15.8582 37.9873 14.4484C35.9507 13.3835 33.0386 13.0236 30.4311 13.3835" stroke="#292D32" stroke-width="2.08374" stroke-linecap="round" stroke-linejoin="round"/>
<path d="M9.54965 9.73907C9.66385 9.72407 9.79708 9.72407 9.91128 9.73907C12.5379 9.66408 14.6315 7.96928 14.6315 5.86954C14.6315 3.72479 12.4427 2 9.72094 2C6.99919 2 4.81036 3.73979 4.81036 5.86954C4.8294 7.96928 6.92306 9.66408 9.54965 9.73907Z" fill="white" stroke="#292D32" stroke-width="2.08374" stroke-linecap="round" stroke-linejoin="round"/>
<path d="M11.5119 20.6576C8.90432 21.0026 6.03029 20.6426 4.01277 19.5778C1.32908 18.1679 1.32908 15.8582 4.01277 14.4484C6.04933 13.3835 8.96142 13.0236 11.569 13.3835" fill="white"/>
<path d="M11.5119 20.6576C8.90432 21.0026 6.03029 20.6426 4.01277 19.5778C1.32908 18.1679 1.32908 15.8582 4.01277 14.4484C6.04933 13.3835 8.96142 13.0236 11.569 13.3835" stroke="#292D32" stroke-width="2.08374" stroke-linecap="round" stroke-linejoin="round"/>
<path d="M21.0297 20.9427C20.9155 20.9277 20.7823 20.9277 20.6681 20.9427C18.0415 20.8677 15.9478 19.1729 15.9478 17.0732C15.9478 14.9285 18.1367 13.2036 20.8584 13.2036C23.5802 13.2036 25.769 14.9435 25.769 17.0732C25.75 19.1729 23.6563 20.8827 21.0297 20.9427Z" fill="white" stroke="#292D32" stroke-width="2.08374" stroke-linecap="round" stroke-linejoin="round"/>
<path d="M26.5696 25.667C23.5433 24.0772 18.5376 24.0772 15.4922 25.667C12.8085 27.0768 12.8085 29.3865 15.4922 30.7964C18.5376 32.4012 23.5243 32.4012 26.5696 30.7964" fill="white"/>
<path d="M26.5696 25.667C23.5433 24.0772 18.5376 24.0772 15.4922 25.667C12.8085 27.0768 12.8085 29.3865 15.4922 30.7964C18.5376 32.4012 23.5243 32.4012 26.5696 30.7964" stroke="#292D32" stroke-width="2.08374" stroke-linecap="round" stroke-linejoin="round"/>
</svg>
